<svg width="102" height="84" viewBox="0 0 102 84" fill="none" xmlns="http://www.w3.org/2000/svg">
<g clip-path="url(#clip0_67_2365)">
<path fill-rule="evenodd" clip-rule="evenodd" d="M0 33.75H101.25V0H0V33.75ZM68.25 33H100.575V0.75H68.25V33ZM0.75 33H67.5V0.75H0.75V33Z" fill="white"/>
<path fill-rule="evenodd" clip-rule="evenodd" d="M14.3999 16.6488C15.2249 16.1238 15.6749 15.2238 15.6749 14.3238C15.6749 12.5988 14.4749 11.2488 12.2999 11.2488H8.6249C8.5499 11.2488 8.3999 11.3238 8.3999 11.3988V22.2738C8.3999 22.3488 8.4749 22.4988 8.5499 22.4988H12.3749C14.6249 22.4988 15.8249 21.1488 15.8249 19.3488C15.8249 18.2988 15.2999 17.2488 14.3249 16.7988C14.3249 16.7238 14.3249 16.6488 14.3999 16.6488ZM11.9999 13.1238C13.0499 13.1238 13.5749 13.6488 13.5749 14.4738C13.5749 15.2238 12.9749 15.8988 12.2249 15.8988C12.1499 15.8988 12.0749 15.8988 11.9999 15.8988H10.4999C10.4249 15.8988 10.4249 15.8988 10.4249 15.8238V13.1988C10.4249 13.1238 10.4999 13.1238 10.4999 13.1238H11.9999ZM12.2249 20.6238H10.4999C10.4249 20.6238 10.4249 20.6238 10.4249 20.5488V17.8488C10.4249 17.7738 10.4249 17.7738 10.4999 17.7738H12.2249C12.9749 17.6988 13.7249 18.2238 13.8749 18.9738C13.8749 19.0488 13.8749 19.1238 13.8749 19.1988C13.7999 20.0238 13.2749 20.6238 12.2249 20.6238ZM24.7499 12.8988V11.3988C24.7499 11.3238 24.6749 11.1738 24.5999 11.1738H18.7499C18.6749 11.1738 18.5999 11.2488 18.5249 11.3238V22.1988C18.5249 22.2738 18.5999 22.3488 18.6749 22.4238H24.5249C24.5999 22.4238 24.7499 22.3488 24.7499 22.2738V20.7738C24.7499 20.6988 24.6749 20.5488 24.5999 20.5488H20.6249C20.5499 20.5488 20.5499 20.5488 20.5499 20.4738V17.7738C20.5499 17.6988 20.5499 17.6988 20.6249 17.6988H24.5999C24.6749 17.6988 24.8249 17.6238 24.8249 17.5488V16.1238C24.8249 16.0488 24.7499 15.8988 24.6749 15.8988H20.6999C20.6249 15.8988 20.6249 15.8988 20.6249 15.8238V13.1988C20.6249 13.1238 20.6999 13.1238 20.6999 13.1238H24.6749C24.5999 13.1238 24.7499 13.0488 24.7499 12.8988ZM33.4499 22.4988H35.4749C35.6249 22.4988 35.6999 22.4238 35.6249 22.2738L33.2249 18.9738C33.2249 18.8988 33.2249 18.8988 33.2249 18.8238C34.7249 18.2238 35.6249 16.7988 35.6249 15.2238C35.6249 12.7488 33.7499 11.2488 31.3499 11.2488H27.8999C27.8249 11.2488 27.7499 11.3238 27.6749 11.3988V22.2738C27.6749 22.3488 27.7499 22.4238 27.8249 22.4988H29.3999C29.4749 22.4988 29.6249 22.4238 29.6249 22.3488V19.3488C29.6249 19.2738 29.6999 19.2738 29.6999 19.2738H30.8999C30.9749 19.2738 30.9749 19.2738 31.0499 19.3488L33.2249 22.4238C33.2999 22.4238 33.3749 22.4988 33.4499 22.4988ZM29.6999 13.1238H31.1999C32.4749 13.1238 33.5249 13.7988 33.5249 15.2238C33.5249 16.6488 32.4749 17.3238 31.1249 17.3238H29.6999C29.6249 17.3238 29.6249 17.3238 29.6249 17.2488V13.1988C29.6249 13.1238 29.6249 13.1238 29.6999 13.1238ZM40.1249 20.5488V11.4738C40.1249 11.3988 40.0499 11.2488 39.9749 11.2488H38.3999C38.3249 11.2488 38.1749 11.3238 38.1749 11.3988V22.2738C38.1749 22.3488 38.2499 22.4988 38.3249 22.4988H43.7999C43.8749 22.4988 43.9499 22.4238 44.0249 22.3488V20.8488C44.0249 20.7738 43.9499 20.6988 43.8749 20.6238H40.2749C40.1999 20.6238 40.1249 20.5488 40.1249 20.5488ZM46.4999 22.4988H48.0749C48.1499 22.4988 48.2999 22.4238 48.2999 22.3488V11.4738C48.2999 11.3988 48.2249 11.2488 48.1499 11.2488H46.4999C46.4249 11.2488 46.2749 11.3238 46.2749 11.3988V22.2738C46.2749 22.4238 46.3499 22.4988 46.4999 22.4988ZM57.8249 11.4738V18.8988C57.8249 18.9738 57.7499 19.0488 57.6749 18.8988L53.3999 11.3988C53.3999 11.3238 53.3249 11.2488 53.2499 11.2488H51.3749C51.2999 11.2488 51.1499 11.3238 51.1499 11.3988V22.2738C51.1499 22.3488 51.2249 22.4988 51.2999 22.4988H52.8749C52.9499 22.4988 53.0999 22.4238 53.0999 22.3488V14.9238C53.0999 14.8488 53.1749 14.7738 53.2499 14.9238L57.5249 22.4238C57.5999 22.4988 57.6749 22.5738 57.7499 22.5738H59.5499C59.6249 22.5738 59.6999 22.4988 59.7749 22.4238V11.4738C59.7749 11.3988 59.6999 11.3238 59.6249 11.2488H58.0499C57.8999 11.2488 57.8249 11.3238 57.8249 11.4738C57.8249 11.4738 57.8249 11.3988 57.8249 11.4738Z" fill="#E4001F"/>
<path fill-rule="evenodd" clip-rule="evenodd" d="M89.025 26.6246C88.95 26.8496 88.8 26.9996 88.575 26.9996H85.725C85.725 26.5496 85.95 26.1746 86.325 26.0246C86.7 25.8746 87.075 25.7246 87.45 25.7246C86.25 24.9746 85.2 23.9996 84.375 22.8746C83.925 23.3246 83.55 23.8496 83.325 24.3746C82.95 25.0496 82.8 25.7246 82.725 26.4746C82.725 26.5496 82.65 26.6246 82.65 26.6996V26.7746C82.65 26.8496 82.575 26.8496 82.575 26.9246C82.5 26.9996 82.425 26.9996 82.35 26.9996H79.35C79.35 26.6246 79.5 26.2496 79.8 26.0246C80.175 25.7996 80.7 25.6496 81.15 25.6496C80.55 23.4746 81.15 21.1496 82.725 19.5746C82.5 18.7496 82.35 17.9246 82.275 17.0996L78.75 17.7746C78.6 17.7746 78.45 17.7746 78.3 17.6996L77.4 17.1746L76.725 16.7246C76.65 16.6496 76.575 16.5746 76.65 16.4996C76.65 16.4996 76.65 16.4246 76.725 16.4246L76.8 16.3496C77.175 16.0496 77.7 15.9746 78.075 16.1996L78.375 16.2746C78.525 16.2746 78.6 16.2746 78.675 16.2746L82.275 14.4746L78.825 11.8496C78.75 11.7746 78.675 11.6996 78.675 11.6246L78.3 10.7996L78 10.2746C77.925 10.1246 77.925 9.97461 77.925 9.82461C77.925 9.74961 78 9.74961 78.075 9.74961C78.225 9.74961 78.375 9.74961 78.525 9.74961C78.825 9.74961 79.125 9.89961 79.275 10.1996L79.575 10.7996C79.65 10.8746 79.725 10.9496 79.875 11.0246L83.175 12.2996V12.2246L83.25 12.1496C83.325 12.0746 83.4 11.9246 83.4 11.9246C84.525 10.5746 83.625 10.2746 83.325 10.1996H83.25C83.1 10.1246 83.1 9.89961 83.1 9.74961C83.1 9.74961 83.175 9.67461 83.325 9.67461C83.55 9.67461 83.7 9.52461 83.775 9.29961V9.22461C83.85 9.14961 83.775 8.84961 83.625 8.92461C83.25 9.14961 83.025 8.77461 82.95 9.07461H82.875C82.8 8.99961 82.725 8.84961 82.65 8.77461L82.575 8.69961C82.425 8.62461 82.35 8.47461 82.35 8.32461L82.275 7.72461C82.275 7.64961 82.35 7.49961 82.5 7.57461H82.95H83.4C83.55 7.57461 83.625 7.57461 83.7 7.49961C84 7.27461 84.375 7.12461 84.75 7.04961C84.9 6.97461 85.125 6.97461 85.35 6.97461C85.725 6.97461 86.1 7.04961 86.475 7.19961L86.7 7.34961L86.775 7.42461C86.85 7.34961 86.85 7.34961 86.925 7.34961C87.3 7.19961 87.75 7.34961 87.9 7.64961C88.125 7.94961 88.05 8.32461 87.825 8.62461L87.9 8.69961C88.05 8.99961 88.125 9.37461 88.2 9.67461C88.35 10.3496 88.425 11.0246 88.35 11.6996C88.275 12.4496 88.05 13.1996 87.75 13.9496V14.0246C87.75 14.0996 87.675 14.0996 87.675 14.1746C87.375 14.9996 87.225 15.8246 87.225 16.7246C87.15 18.1496 87.45 19.4996 88.125 20.7746C88.2 20.9246 88.2 21.1496 87.975 21.2246C87.9 21.2246 87.9 21.2996 87.825 21.2996H87.675C88.425 22.6496 89.025 26.4746 89.025 26.6246Z" fill="white"/>
<path d="M100.875 33.375H0.375V82.875H100.875V33.375Z" stroke="white" stroke-width="0.75"/>
<path d="M8.32495 50.1002V43.3502C8.32495 43.2752 8.39995 43.2002 8.39995 43.2002H10.65C12 43.2002 12.75 44.0252 12.75 45.0752C12.75 45.7502 12.45 46.2002 12 46.5002C11.925 46.5752 11.925 46.5752 12 46.6502C12.525 46.9502 12.9 47.4752 12.9 48.2252C12.9 49.3502 12.15 50.1752 10.8 50.1752H8.39995C8.39995 50.2502 8.32495 50.1752 8.32495 50.1002ZM9.52495 44.4752V46.1252C9.52495 46.2002 9.52495 46.2002 9.59995 46.2002H10.575C11.175 46.2002 11.55 45.8252 11.55 45.3002C11.55 44.7752 11.175 44.4002 10.575 44.4002L9.52495 44.4752C9.52495 44.4752 9.59995 44.4002 9.52495 44.4752ZM9.52495 47.3252V48.9752C9.52495 48.9752 9.52495 49.0502 9.59995 49.0502H10.65C11.325 49.0502 11.625 48.6752 11.625 48.1502C11.625 47.6252 11.25 47.2502 10.65 47.2502L9.52495 47.3252C9.52495 47.3252 9.59995 47.3252 9.52495 47.3252Z" fill="white"/>
<path d="M14.4 43.2754H18C18.075 43.2754 18.15 43.3504 18.15 43.4254V44.3254C18.15 44.4004 18.075 44.4754 18 44.4754H15.525C15.525 44.4754 15.45 44.4754 15.45 44.5504V46.1254C15.45 46.2004 15.45 46.2004 15.525 46.2004H18C18.075 46.2004 18.15 46.2754 18.15 46.3504V47.2504C18.15 47.3254 18.075 47.4004 18 47.4004H15.525C15.525 47.4004 15.45 47.4004 15.45 47.4754V49.1254C15.45 49.1254 15.45 49.2004 15.525 49.2004H18C18.075 49.2004 18.15 49.2754 18.15 49.3504V50.2504C18.15 50.3254 18.075 50.4004 18 50.4004H14.4C14.325 50.4004 14.25 50.3254 14.25 50.2504V43.5004C14.25 43.3504 14.325 43.2754 14.4 43.2754Z" fill="white"/>
<path d="M20.7 50.2502H19.725C19.65 50.2502 19.575 50.1752 19.575 50.1002V43.3502C19.575 43.2752 19.65 43.2002 19.725 43.2002H21.825C23.325 43.2002 24.525 44.1002 24.525 45.6752C24.525 46.8002 23.9249 47.5502 23.1 47.9252C23.025 47.9252 23.025 48.0002 23.025 48.0752L24.525 50.1002C24.6 50.1752 24.5249 50.2502 24.4499 50.2502H23.25C23.1 50.2502 23.1 50.2502 23.025 50.1002L21.75 48.3002C21.675 48.2252 21.675 48.2252 21.525 48.2252H20.85C20.85 48.2252 20.775 48.2252 20.775 48.3002V50.1752C20.775 50.1752 20.7 50.2502 20.7 50.2502ZM20.775 44.4752V47.0252C20.775 47.0252 20.775 47.1002 20.85 47.1002H21.75C22.575 47.1002 23.25 46.6502 23.25 45.7502C23.25 44.8502 22.575 44.4002 21.75 44.4002L20.775 44.4752C20.775 44.4752 20.775 44.4002 20.775 44.4752Z" fill="white"/>
<path d="M25.875 43.2754H26.85C26.925 43.2754 27 43.3504 27 43.4254V49.0504C27 49.0504 27 49.1254 27.075 49.1254H29.325C29.4 49.1254 29.475 49.2004 29.475 49.2754V50.1754C29.475 50.2504 29.4 50.3254 29.325 50.3254H25.95C25.875 50.3254 25.8 50.2504 25.8 50.1754V43.4254C25.8 43.3504 25.8 43.2754 25.875 43.2754Z" fill="white"/>
<path d="M31.65 43.3502V50.1002C31.65 50.1752 31.575 50.2502 31.5 50.2502H30.525C30.45 50.2502 30.375 50.1752 30.375 50.1002V43.3502C30.375 43.2752 30.45 43.2002 30.525 43.2002H31.5C31.575 43.2752 31.65 43.3502 31.65 43.3502Z" fill="white"/>
<path d="M37.425 48.0004V43.4254C37.425 43.3504 37.5 43.2754 37.575 43.2754H38.55C38.625 43.2754 38.7 43.3504 38.7 43.4254V50.1754C38.7 50.2504 38.625 50.3254 38.55 50.3254H37.5C37.425 50.3254 37.35 50.3254 37.275 50.1754L34.65 45.6004C34.65 45.5254 34.575 45.5254 34.575 45.6004V50.1754C34.575 50.2504 34.5 50.3254 34.425 50.3254H33.45C33.375 50.3254 33.3 50.2504 33.3 50.1754V43.4254C33.3 43.3504 33.375 43.2754 33.45 43.2754H34.5C34.575 43.2754 34.65 43.2754 34.725 43.4254L37.425 48.0004C37.425 48.0004 37.35 48.0754 37.425 48.0004Z" fill="white"/>
<path d="M47.1 45.8254C47.1 47.4004 46.05 48.3754 44.475 48.3754H43.65C43.575 48.3754 43.575 48.3754 43.575 48.4504V50.1754C43.575 50.2504 43.5 50.3254 43.425 50.3254H42.45C42.375 50.3254 42.3 50.2504 42.3 50.1754V43.4254C42.3 43.3504 42.375 43.2754 42.45 43.2754H44.4C46.05 43.2754 47.1 44.2504 47.1 45.8254ZM43.65 47.1754H44.325C45.3 47.1754 45.825 46.6504 45.825 45.8254C45.825 45.0004 45.3 44.4754 44.325 44.4754H43.65C43.65 44.4754 43.575 44.4754 43.575 44.5504L43.65 47.1754C43.65 47.1754 43.575 47.1754 43.65 47.1754Z" fill="white"/>
<path d="M51.2251 43.4254L53.1751 50.1754C53.1751 50.2504 53.1751 50.3254 53.1001 50.3254H52.0501C51.9751 50.3254 51.9751 50.3254 51.9001 50.2504L51.5251 49.0504C51.5251 48.9754 51.4501 48.9754 51.4501 48.9754H48.9001C48.8251 48.9754 48.8251 48.9754 48.8251 49.0504L48.4501 50.2504C48.4501 50.3254 48.3751 50.3254 48.3001 50.3254H47.2501C47.1751 50.3254 47.1001 50.2504 47.1751 50.1754L49.1251 43.4254C49.1251 43.2754 49.2001 43.2754 49.3501 43.2754H51.0751C51.1501 43.2754 51.2251 43.2754 51.2251 43.4254ZM49.2001 47.7004H51.0751C51.1501 47.7004 51.1501 47.7004 51.1501 47.6254L50.2501 44.4754C50.2501 44.4004 50.2501 44.4004 50.1751 44.4004H50.1001C50.1001 44.4004 50.0251 44.4004 50.0251 44.4754L49.2001 47.7004Z" fill="white"/>
<path d="M55.2749 50.2502H54.2999C54.2249 50.2502 54.1499 50.1752 54.1499 50.1002V43.3502C54.1499 43.2752 54.2249 43.2002 54.2999 43.2002H56.3999C57.8999 43.2002 59.0999 44.1002 59.0999 45.6752C59.0999 46.8002 58.4999 47.5502 57.6749 47.9252C57.5999 47.9252 57.5999 48.0002 57.5999 48.0752L59.0999 50.1002C59.1749 50.1752 59.0999 50.2502 59.0249 50.2502H57.8249C57.6749 50.2502 57.6749 50.2502 57.5999 50.1002L56.3249 48.3002C56.2499 48.2252 56.2499 48.2252 56.0999 48.2252H55.4999C55.4999 48.2252 55.4249 48.2252 55.4249 48.3002V50.1752C55.4249 50.1752 55.3499 50.2502 55.2749 50.2502ZM55.4249 44.4752V47.0252C55.4249 47.0252 55.4249 47.1002 55.4999 47.1002H56.3999C57.2249 47.1002 57.8999 46.6502 57.8999 45.7502C57.8999 44.8502 57.2249 44.4002 56.3999 44.4002L55.4249 44.4752C55.4249 44.4752 55.4249 44.4002 55.4249 44.4752Z" fill="white"/>
<path d="M64.3501 43.3502V44.2502C64.3501 44.3252 64.2751 44.4002 64.2001 44.4002H62.5501C62.4751 44.4002 62.4751 44.4002 62.4751 44.4752V50.1002C62.4751 50.1752 62.4001 50.2502 62.3251 50.2502H61.5001C61.4251 50.2502 61.3501 50.1752 61.3501 50.1002V44.4752C61.3501 44.4752 61.3501 44.4002 61.2751 44.4002H59.6251C59.5501 44.4002 59.4751 44.3252 59.4751 44.2502V43.3502C59.4751 43.2752 59.5501 43.2002 59.6251 43.2002H64.2001C64.3501 43.2752 64.3501 43.3502 64.3501 43.3502Z" fill="white"/>
<path d="M69.4502 48.0004V43.4254C69.4502 43.3504 69.5252 43.2754 69.6002 43.2754H70.5752C70.6502 43.2754 70.7252 43.3504 70.7252 43.4254V50.1754C70.7252 50.2504 70.6502 50.3254 70.5752 50.3254H69.5252C69.4502 50.3254 69.3752 50.3254 69.3002 50.1754L66.6752 45.6004C66.6752 45.5254 66.6002 45.5254 66.6002 45.6004V50.1754C66.6002 50.2504 66.5252 50.3254 66.4502 50.3254H65.4752C65.4002 50.3254 65.3252 50.2504 65.3252 50.1754V43.4254C65.3252 43.3504 65.4002 43.2754 65.4752 43.2754H66.5252C66.6002 43.2754 66.6752 43.2754 66.7502 43.4254L69.4502 48.0004C69.4502 48.0004 69.4502 48.0754 69.4502 48.0004Z" fill="white"/>
<path d="M72.45 43.2754H76.05C76.125 43.2754 76.2 43.3504 76.2 43.4254V44.3254C76.2 44.4004 76.125 44.4754 76.05 44.4754H73.575C73.575 44.4754 73.5 44.4754 73.5 44.5504V46.1254C73.5 46.2004 73.5 46.2004 73.575 46.2004H76.05C76.125 46.2004 76.2 46.2754 76.2 46.3504V47.2504C76.2 47.3254 76.125 47.4004 76.05 47.4004H73.575C73.575 47.4004 73.5 47.4004 73.5 47.4754V49.1254C73.5 49.1254 73.5 49.2004 73.575 49.2004H76.05C76.125 49.2004 76.2 49.2754 76.2 49.3504V50.2504C76.2 50.3254 76.125 50.4004 76.05 50.4004H72.45C72.375 50.4004 72.3 50.3254 72.3 50.2504V43.5004C72.375 43.3504 72.375 43.2754 72.45 43.2754Z" fill="white"/>
<path d="M78.75 50.2502H77.775C77.7 50.2502 77.625 50.1752 77.625 50.1002V43.3502C77.625 43.2752 77.7 43.2002 77.775 43.2002H79.875C81.375 43.2002 82.575 44.1002 82.575 45.6752C82.575 46.8002 81.975 47.5502 81.15 47.9252C81.075 47.9252 81.075 48.0002 81.075 48.0752L82.575 50.1002C82.65 50.1752 82.575 50.2502 82.5 50.2502H81.3C81.15 50.2502 81.15 50.2502 81.075 50.1002L79.8 48.3002C79.725 48.2252 79.725 48.2252 79.575 48.2252H78.9C78.9 48.2252 78.825 48.2252 78.825 48.3002V50.1752C78.9 50.1752 78.825 50.2502 78.75 50.2502ZM78.9 44.4752V47.0252C78.9 47.0252 78.9 47.1002 78.975 47.1002H79.875C80.7 47.1002 81.375 46.6502 81.375 45.7502C81.375 44.8502 80.7 44.4002 79.875 44.4002L78.9 44.4752C78.9 44.4752 78.9 44.4002 78.9 44.4752Z" fill="white"/>
<path d="M8.32505 61.7998V58.4248C8.32505 58.4248 8.32505 58.3498 8.25005 58.3498H7.87505C7.80005 58.3498 7.80005 58.3498 7.80005 58.2748V57.8998C7.80005 57.8248 7.80005 57.8248 7.87505 57.8248H8.25005C8.25005 57.8248 8.32505 57.8248 8.32505 57.7498V56.4748C8.32505 55.8748 8.62505 55.4248 9.30005 55.4248C9.45005 55.4248 9.67505 55.4998 9.75005 55.5748C9.82505 55.5748 9.82505 55.6498 9.82505 55.6498L9.67505 56.0248C9.67505 56.0998 9.60005 56.0998 9.52505 56.0248C9.45005 55.9498 9.37505 55.9498 9.30005 55.9498C9.07505 55.9498 8.92505 56.0998 8.92505 56.3998V57.7498C8.92505 57.7498 8.92505 57.8248 9.00005 57.8248H9.52505C9.60005 57.8248 9.60005 57.8248 9.60005 57.8998V58.2748C9.60005 58.3498 9.60005 58.3498 9.52505 58.3498H9.00005C9.00005 58.3498 8.92505 58.3498 8.92505 58.4248V61.7998C8.92505 61.8748 8.92505 61.8748 8.85005 61.8748H8.40005C8.32505 61.8748 8.32505 61.8748 8.32505 61.7998Z" fill="white"/>
<path d="M12.975 57.8252H13.5C13.575 57.8252 13.575 57.8252 13.575 57.9002V61.8002C13.575 61.8752 13.575 61.8752 13.5 61.8752H13.05C12.975 61.8752 12.975 61.8752 12.975 61.8002V61.5002C12.975 61.4252 12.975 61.4252 12.9 61.5002C12.675 61.8002 12.3 61.9502 11.85 61.9502C10.95 61.9502 10.5 61.3502 10.5 60.6002V57.9002C10.5 57.8252 10.5 57.8252 10.575 57.8252H11.025C11.1 57.8252 11.1 57.8252 11.1 57.9002V60.5252C11.1 61.1252 11.4 61.4252 11.925 61.4252C12.3 61.4252 12.6 61.2002 12.825 60.8252C12.825 60.7502 12.9 60.6752 12.9 60.6752V57.9002C12.9 57.8252 12.975 57.8252 12.975 57.8252ZM10.65 56.4002C10.65 56.1752 10.875 55.9502 11.1 55.9502C11.325 55.9502 11.55 56.1752 11.55 56.4002C11.55 56.6252 11.325 56.8502 11.1 56.8502C10.875 56.8502 10.65 56.6252 10.65 56.4002ZM12.45 56.4002C12.45 56.1752 12.675 55.9502 12.9 55.9502C13.125 55.9502 13.35 56.1752 13.35 56.4002C13.35 56.6252 13.125 56.8502 12.9 56.8502C12.6 56.8502 12.45 56.6252 12.45 56.4002Z" fill="white"/>
<path d="M16.8 57.7498C16.875 57.7498 16.875 57.7498 16.875 57.8248V58.2748C16.875 58.3498 16.875 58.3498 16.8 58.3498C16.725 58.3498 16.65 58.3498 16.575 58.3498C16.125 58.3498 15.825 58.5748 15.6 58.8748C15.525 58.9498 15.525 59.0248 15.525 59.0998V61.7998C15.525 61.8748 15.525 61.8748 15.45 61.8748H15C14.925 61.8748 14.925 61.8748 14.925 61.7998V57.8998C14.925 57.8248 14.925 57.8248 15 57.8248H15.45C15.525 57.8248 15.525 57.8248 15.525 57.8998V58.1998C15.525 58.2748 15.525 58.2748 15.6 58.1998C15.825 57.8998 16.2 57.6748 16.725 57.6748C16.725 57.7498 16.725 57.7498 16.8 57.7498Z" fill="white"/>
<path d="M20.55 61.7996L19.2 55.7996C19.2 55.7246 19.2 55.7246 19.275 55.7246H19.8C19.875 55.7246 19.875 55.7246 19.875 55.7996L21 60.7496C21 60.8246 21.075 60.8246 21.075 60.7496L22.2 55.7996C22.2 55.7246 22.275 55.7246 22.275 55.7246H22.725C22.8 55.7246 22.8 55.7246 22.8 55.7996L23.925 60.7496C23.925 60.8246 24 60.8246 24 60.7496L25.125 55.7996C25.125 55.7246 25.1999 55.7246 25.1999 55.7246H25.725C25.8 55.7246 25.8 55.7246 25.8 55.7996L24.4499 61.7996C24.4499 61.8746 24.375 61.8746 24.375 61.8746H23.775C23.7 61.8746 23.7 61.8746 23.7 61.7996L22.575 57.0746C22.575 56.9996 22.5 56.9996 22.5 57.0746L21.375 61.7996C21.375 61.8746 21.3 61.8746 21.3 61.8746H20.7C20.625 61.8746 20.625 61.8746 20.55 61.7996Z" fill="white"/>
<path d="M26.7 56.3992C26.7 56.1742 26.925 55.9492 27.15 55.9492C27.375 55.9492 27.6 56.1742 27.6 56.3992C27.6 56.6242 27.375 56.8492 27.15 56.8492C26.925 56.8492 26.7 56.6242 26.7 56.3992ZM26.85 61.7992V57.8992C26.85 57.8242 26.85 57.8242 26.925 57.8242H27.375C27.45 57.8242 27.45 57.8242 27.45 57.8992V61.7992C27.45 61.8742 27.45 61.8742 27.375 61.8742H26.925C26.85 61.8742 26.85 61.8742 26.85 61.7992Z" fill="white"/>
<path d="M30.75 57.7488C30.825 57.7488 30.825 57.7488 30.825 57.8238V58.2738C30.825 58.3488 30.825 58.3488 30.75 58.3488C30.675 58.3488 30.6 58.3488 30.525 58.3488C30.075 58.3488 29.775 58.5738 29.55 58.8738C29.475 58.9488 29.475 59.0238 29.475 59.0988V61.7988C29.475 61.8738 29.475 61.8738 29.4 61.8738H28.95C28.875 61.8738 28.875 61.8738 28.875 61.7988V57.8988C28.875 57.8238 28.875 57.8238 28.95 57.8238H29.4C29.475 57.8238 29.475 57.8238 29.475 57.8988V58.1988C29.475 58.2738 29.475 58.2738 29.55 58.1988C29.775 57.8988 30.15 57.6738 30.675 57.6738C30.6 57.7488 30.675 57.7488 30.75 57.7488Z" fill="white"/>
<path d="M31.8749 56.2504L32.3249 56.0254C32.3999 56.0254 32.3999 56.0254 32.3999 56.1004V57.7504C32.3999 57.7504 32.3999 57.8254 32.4749 57.8254H32.9999C33.0749 57.8254 33.0749 57.8254 33.0749 57.9004V58.2754C33.0749 58.3504 33.0749 58.3504 32.9999 58.3504H32.5499C32.5499 58.3504 32.4749 58.3504 32.4749 58.4254V61.8004C32.4749 61.8754 32.4749 61.8754 32.3999 61.8754H31.9499C31.8749 61.8754 31.8749 61.8754 31.8749 61.8004V58.4254C31.8749 58.4254 31.8749 58.3504 31.7999 58.3504H31.3499C31.2749 58.3504 31.2749 58.3504 31.2749 58.2754V57.9004C31.2749 57.8254 31.2749 57.8254 31.3499 57.8254H31.7999C31.7999 57.8254 31.8749 57.8254 31.8749 57.7504V56.3254C31.7999 56.2504 31.7999 56.2504 31.8749 56.2504Z" fill="white"/>
<path d="M33.675 60.9748C33.675 60.8998 33.675 60.8998 33.75 60.8998L34.2 60.7498C34.275 60.7498 34.275 60.7498 34.35 60.8248C34.5 61.1998 34.8 61.4248 35.1 61.4248C35.625 61.4248 35.85 61.1248 35.85 60.7498C35.85 60.3748 35.55 60.1498 35.175 60.0748L34.8 59.9998C34.2 59.8498 33.825 59.3998 33.825 58.8748C33.825 58.1998 34.35 57.6748 35.175 57.6748C35.775 57.6748 36.3 58.0498 36.45 58.6498C36.45 58.7248 36.45 58.7248 36.375 58.7998L36 58.8748C35.925 58.8748 35.925 58.8748 35.925 58.7998C35.85 58.4248 35.625 58.2748 35.25 58.2748C34.8 58.2748 34.575 58.4998 34.575 58.8748C34.575 59.2498 34.8 59.3998 35.175 59.4748L35.55 59.5498C36.15 59.6998 36.675 60.0748 36.675 60.7498C36.675 61.4248 36.15 61.9498 35.325 61.9498C34.35 61.9498 33.9 61.5748 33.675 60.9748Z" fill="white"/>
<path d="M39.225 57.75C39.9 57.75 40.5 58.05 40.875 58.575C40.875 58.65 40.875 58.65 40.875 58.725L40.5 58.875C40.425 58.875 40.425 58.875 40.35 58.875C40.125 58.5 39.75 58.275 39.225 58.275C38.4 58.275 37.875 58.875 37.875 59.775C37.875 60.675 38.4 61.275 39.225 61.275C39.675 61.275 40.125 61.05 40.35 60.675C40.35 60.6 40.425 60.6 40.5 60.675L40.875 60.9C40.95 60.9 40.95 60.975 40.875 61.05C40.575 61.65 39.9 61.875 39.225 61.875C38.025 61.875 37.2 61.05 37.2 59.775C37.2 58.575 38.025 57.75 39.225 57.75Z" fill="white"/>
<path d="M42.45 61.8752H42C41.925 61.8752 41.925 61.8752 41.925 61.8002V55.6502C41.925 55.5752 41.925 55.5752 42 55.5752H42.45C42.525 55.5752 42.525 55.5752 42.525 55.6502V58.2002C42.525 58.2752 42.525 58.2752 42.6 58.2002C42.825 57.9002 43.2 57.7502 43.65 57.7502C44.55 57.7502 45 58.3502 45 59.1002V61.8002C45 61.8752 45 61.8752 44.925 61.8752H44.475C44.4 61.8752 44.4 61.8752 44.4 61.8002V59.1752C44.4 58.5752 44.1 58.2752 43.575 58.2752C43.2 58.2752 42.825 58.5002 42.675 58.8752C42.675 58.9502 42.6 59.0252 42.6 59.0252V61.8002C42.525 61.8752 42.525 61.8752 42.45 61.8752Z" fill="white"/>
<path d="M45.9751 59.85C45.9751 58.575 46.8751 57.75 48.0001 57.75C48.6001 57.75 49.0501 57.975 49.3501 58.275H49.4251V57.9C49.4251 57.825 49.4251 57.825 49.5001 57.825H49.9501C50.0251 57.825 50.0251 57.825 50.0251 57.9V61.8C50.0251 61.875 50.0251 61.875 49.9501 61.875H49.5001C49.4251 61.875 49.4251 61.875 49.4251 61.8V61.425C49.4251 61.425 49.4251 61.35 49.3501 61.425C49.0501 61.725 48.6001 61.95 48.0001 61.95C46.8751 61.95 45.9751 61.125 45.9751 59.85ZM49.2751 60.75C49.2751 60.675 49.2751 60.675 49.2751 60.6V59.1C49.2751 59.025 49.2751 59.025 49.2751 58.95C49.0501 58.575 48.6001 58.275 48.0751 58.275C47.1751 58.275 46.6501 58.875 46.6501 59.85C46.6501 60.75 47.2501 61.425 48.0751 61.425C48.6001 61.35 49.1251 61.125 49.2751 60.75Z" fill="white"/>
<path d="M51.45 61.7998V58.4248C51.45 58.4248 51.45 58.3498 51.375 58.3498H51C50.925 58.3498 50.925 58.3498 50.925 58.2748V57.8998C50.925 57.8248 50.925 57.8248 51 57.8248H51.375C51.375 57.8248 51.45 57.8248 51.45 57.7498V56.4748C51.45 55.8748 51.75 55.4248 52.425 55.4248C52.575 55.4248 52.8 55.4998 52.875 55.5748C52.95 55.5748 52.95 55.6498 52.95 55.6498L52.8 56.0248C52.8 56.0998 52.725 56.0998 52.65 56.0248C52.575 55.9498 52.5 55.9498 52.425 55.9498C52.2 55.9498 52.05 56.0998 52.05 56.3998V57.7498C52.05 57.7498 52.05 57.8248 52.125 57.8248H52.65C52.725 57.8248 52.725 57.8248 52.725 57.8998V58.2748C52.725 58.3498 52.725 58.3498 52.65 58.3498H52.125C52.125 58.3498 52.05 58.3498 52.05 58.4248V61.7998C52.05 61.8748 52.05 61.8748 51.975 61.8748H51.525C51.525 61.8748 51.45 61.8748 51.45 61.7998Z" fill="white"/>
<path d="M53.925 56.2494L54.375 56.0244C54.45 56.0244 54.45 56.0244 54.45 56.0994V57.7494C54.45 57.7494 54.45 57.8244 54.525 57.8244H54.975C55.05 57.8244 55.05 57.8244 55.05 57.8994V58.2744C55.05 58.3494 55.05 58.3494 54.975 58.3494H54.525C54.525 58.3494 54.45 58.3494 54.45 58.4244V61.7994C54.45 61.8744 54.45 61.8744 54.375 61.8744H53.925C53.85 61.8744 53.85 61.8744 53.85 61.7994V58.4244C53.85 58.4244 53.85 58.3494 53.775 58.3494H53.325C53.25 58.3494 53.25 58.3494 53.25 58.2744V57.8994C53.25 57.8244 53.25 57.8244 53.325 57.8244H53.775C53.775 57.8244 53.85 57.8244 53.85 57.7494V56.3244C53.85 56.2494 53.85 56.2494 53.925 56.2494Z" fill="white"/>
<path d="M10.6501 68.6992H11.1001C11.1751 68.6992 11.1751 68.6992 11.1751 68.7742V72.6742C11.1751 72.7492 11.1751 72.7492 11.1001 72.7492H10.6501C10.5751 72.7492 10.5751 72.7492 10.5751 72.6742V72.3742C10.5751 72.2992 10.5751 72.2992 10.5001 72.3742C10.2751 72.6742 9.9001 72.8242 9.4501 72.8242C8.5501 72.8242 8.1001 72.2242 8.1001 71.4742V68.7742C8.1001 68.6992 8.1001 68.6992 8.1751 68.6992H8.6251C8.7001 68.6992 8.7001 68.6992 8.7001 68.7742V71.3992C8.7001 71.9992 9.0001 72.2992 9.5251 72.2992C9.9001 72.2992 10.2001 72.0742 10.4251 71.6992C10.4251 71.6242 10.5001 71.5492 10.5001 71.5492V68.7742C10.5751 68.6992 10.5751 68.6992 10.6501 68.6992Z" fill="white"/>
<path d="M13.1251 72.75H12.6751C12.6001 72.75 12.6001 72.75 12.6001 72.675V68.775C12.6001 68.7 12.6001 68.7 12.6751 68.7H13.1251C13.2001 68.7 13.2001 68.7 13.2001 68.775V69.075C13.2001 69.15 13.2001 69.15 13.2751 69.075C13.5751 68.775 13.8751 68.625 14.3251 68.625C15.2251 68.625 15.6751 69.225 15.6751 69.975V72.675C15.6751 72.75 15.6751 72.75 15.6001 72.75H15.1501C15.0751 72.75 15.0751 72.75 15.0751 72.675V70.05C15.0751 69.45 14.7751 69.15 14.2501 69.15C13.8751 69.15 13.5751 69.375 13.3501 69.75C13.3501 69.825 13.2751 69.9 13.2751 69.9V72.675C13.2001 72.75 13.1251 72.75 13.1251 72.75Z" fill="white"/>
<path d="M20.1001 66.375H20.5501C20.6251 66.375 20.6251 66.375 20.6251 66.45V72.6C20.6251 72.675 20.6251 72.675 20.5501 72.675H20.1001C20.0251 72.675 20.0251 72.675 20.0251 72.6V72.3C20.0251 72.225 20.0251 72.225 19.9501 72.3C19.6501 72.6 19.2001 72.825 18.6751 72.825C17.5501 72.825 16.6501 72 16.6501 70.725C16.6501 69.45 17.5501 68.625 18.6751 68.625C19.2001 68.625 19.6501 68.775 19.9501 69.075C20.0251 69.15 20.0251 69.075 20.0251 69.075V66.525C20.0251 66.45 20.0251 66.375 20.1001 66.375ZM19.9501 71.625C19.9501 71.55 19.9501 71.55 19.9501 71.475V69.975C19.9501 69.9 19.9501 69.9 19.9501 69.825C19.7251 69.45 19.2751 69.15 18.7501 69.15C17.8501 69.15 17.3251 69.75 17.3251 70.725C17.3251 71.625 17.9251 72.3 18.7501 72.3C19.2751 72.225 19.7251 72 19.9501 71.625Z" fill="white"/>
<path d="M27.45 66.6746V67.1246C27.45 67.1996 27.45 67.1996 27.375 67.1996H25.875C25.875 67.1996 25.8001 67.1996 25.8001 67.2746V72.6746C25.8001 72.7496 25.8 72.7496 25.725 72.7496H25.275C25.2 72.7496 25.2 72.7496 25.2 72.6746V67.2746C25.2 67.2746 25.2 67.1996 25.125 67.1996H23.625C23.55 67.1996 23.55 67.1996 23.55 67.1246V66.6746C23.55 66.5996 23.55 66.5996 23.625 66.5996H27.45C27.375 66.5996 27.45 66.6746 27.45 66.6746Z" fill="white"/>
<path d="M27.3 70.725C27.3 69.45 28.125 68.625 29.25 68.625C30.375 68.625 31.2 69.45 31.2 70.65C31.2 70.725 31.2 70.8 31.2 70.875C31.2 70.95 31.2 70.95 31.125 70.95H28.05C27.975 70.95 27.975 70.95 27.975 71.1C28.05 71.85 28.575 72.375 29.4 72.375C29.85 72.375 30.3 72.15 30.525 71.85C30.6 71.775 30.6 71.775 30.675 71.85L30.975 72.15C30.975 72.15 30.975 72.225 30.975 72.3C30.525 72.75 30 72.975 29.4 72.975C28.125 72.825 27.3 72 27.3 70.725ZM30.525 70.275C30.375 69.6 29.925 69.15 29.25 69.15C28.575 69.15 28.05 69.6 27.975 70.275C27.975 70.35 27.975 70.35 28.05 70.35H30.45C30.525 70.35 30.6 70.35 30.525 70.275Z" fill="white"/>
<path d="M33.975 68.625C34.65 68.625 35.25 68.925 35.625 69.45C35.625 69.525 35.625 69.525 35.625 69.6L35.25 69.75C35.175 69.75 35.175 69.75 35.1 69.75C34.875 69.375 34.5 69.15 33.975 69.15C33.15 69.15 32.625 69.75 32.625 70.65C32.625 71.55 33.15 72.15 33.975 72.15C34.425 72.15 34.875 71.925 35.1 71.55C35.1 71.475 35.175 71.475 35.25 71.55L35.625 71.775C35.7 71.775 35.7 71.85 35.625 71.925C35.325 72.525 34.65 72.75 33.975 72.75C32.775 72.75 31.95 71.925 31.95 70.65C31.95 69.45 32.775 68.625 33.975 68.625Z" fill="white"/>
<path d="M37.2 72.7502H36.75C36.675 72.7502 36.675 72.7502 36.675 72.6752V66.5252C36.675 66.4502 36.675 66.4502 36.75 66.4502H37.2C37.275 66.4502 37.275 66.4502 37.275 66.5252V69.0002C37.275 69.0752 37.275 69.0752 37.35 69.0002C37.575 68.7002 37.95 68.5502 38.4 68.5502C39.3 68.5502 39.75 69.1502 39.75 69.9002V72.6002C39.75 72.6752 39.75 72.6752 39.675 72.6752H39.225C39.15 72.6752 39.15 72.6752 39.15 72.6002V69.9752C39.15 69.3752 38.85 69.0752 38.325 69.0752C37.95 69.0752 37.575 69.3002 37.425 69.6752C37.425 69.7502 37.35 69.8252 37.35 69.8252V72.6002C37.275 72.7502 37.2 72.7502 37.2 72.7502Z" fill="white"/>
<path d="M41.5501 72.75H41.1001C41.0251 72.75 41.0251 72.75 41.0251 72.675V68.775C41.0251 68.7 41.0251 68.7 41.1001 68.7H41.5501C41.6251 68.7 41.6251 68.7 41.6251 68.775V69.075C41.6251 69.15 41.6251 69.15 41.7001 69.075C42.0001 68.775 42.3001 68.625 42.7501 68.625C43.6501 68.625 44.1001 69.225 44.1001 69.975V72.675C44.1001 72.75 44.1001 72.75 44.0251 72.75H43.5751C43.5001 72.75 43.5001 72.75 43.5001 72.675V70.05C43.5001 69.45 43.2001 69.15 42.6751 69.15C42.3001 69.15 42.0001 69.375 41.7751 69.75C41.7751 69.825 41.7001 69.9 41.7001 69.9V72.675C41.6251 72.75 41.6251 72.75 41.5501 72.75Z" fill="white"/>
<path d="M45.075 70.725C45.075 69.525 45.975 68.625 47.1 68.625C48.3 68.625 49.125 69.6 49.125 70.725C49.125 71.85 48.225 72.825 47.1 72.825C45.975 72.825 45.075 71.85 45.075 70.725ZM48.525 70.725C48.525 69.9 47.925 69.225 47.1 69.225C46.275 69.225 45.675 69.9 45.675 70.725C45.675 71.55 46.275 72.225 47.1 72.225C47.925 72.225 48.525 71.55 48.525 70.725Z" fill="white"/>
<path d="M51.375 72.3002V72.6752C51.375 72.7502 51.375 72.7502 51.3 72.7502H51.15C50.55 72.7502 50.25 72.5252 50.25 72.0002V66.5252C50.25 66.4502 50.25 66.4502 50.325 66.4502H50.775C50.85 66.4502 50.85 66.4502 50.85 66.5252V71.9252C50.85 72.1502 50.925 72.2252 51.15 72.2252H51.3C51.3 72.2252 51.375 72.2252 51.375 72.3002Z" fill="white"/>
<path d="M51.9751 70.725C51.9751 69.525 52.8751 68.625 54.0001 68.625C55.2001 68.625 56.0251 69.6 56.0251 70.725C56.0251 71.85 55.1251 72.825 54.0001 72.825C52.8001 72.825 51.9751 71.85 51.9751 70.725ZM55.4251 70.725C55.4251 69.9 54.8251 69.225 54.0001 69.225C53.1751 69.225 52.5751 69.9 52.5751 70.725C52.5751 71.55 53.1751 72.225 54.0001 72.225C54.8251 72.225 55.4251 71.55 55.4251 70.725Z" fill="white"/>
<path d="M57.2251 73.875C57.2251 73.8 57.2251 73.8 57.2251 73.725L57.5251 73.425C57.5251 73.35 57.6001 73.35 57.6751 73.425C57.9001 73.725 58.3501 73.95 58.8751 73.95C59.7001 73.95 60.1501 73.575 60.1501 72.825V72.225C60.1501 72.15 60.0751 72.15 60.0751 72.225C59.7751 72.525 59.3251 72.675 58.8001 72.675C57.6751 72.675 56.8501 71.85 56.8501 70.65C56.8501 69.45 57.7501 68.625 58.8001 68.625C59.3251 68.625 59.7751 68.775 60.0751 69.15C60.1501 69.225 60.1501 69.15 60.1501 69.15V68.85C60.1501 68.775 60.2251 68.775 60.2251 68.775H60.6751C60.7501 68.775 60.7501 68.775 60.7501 68.85V72.975C60.7501 74.1 59.9251 74.625 58.8001 74.625C58.1251 74.55 57.6001 74.25 57.2251 73.875ZM60.0751 71.475C60.0751 71.4 60.1501 71.4 60.1501 71.325V69.975C60.1501 69.9 60.1501 69.9 60.0751 69.825C59.8501 69.45 59.4001 69.225 58.8751 69.225C58.0501 69.225 57.4501 69.825 57.4501 70.65C57.4501 71.55 58.0501 72.075 58.8751 72.075C59.4751 72.075 59.8501 71.85 60.0751 71.475Z" fill="white"/>
<path d="M61.9502 67.2752C61.9502 67.0502 62.1752 66.8252 62.4002 66.8252C62.6252 66.8252 62.8502 67.0502 62.8502 67.2752C62.8502 67.5002 62.6252 67.7252 62.4002 67.7252C62.1752 67.7252 61.9502 67.5002 61.9502 67.2752ZM62.1002 72.6752V68.7752C62.1002 68.7002 62.1002 68.7002 62.1752 68.7002H62.6252C62.7002 68.7002 62.7002 68.7002 62.7002 68.7752V72.6752C62.7002 72.7502 62.7002 72.7502 62.6252 72.7502H62.1752C62.1002 72.7502 62.1002 72.7502 62.1002 72.6752Z" fill="white"/>
<path d="M63.75 70.725C63.75 69.45 64.575 68.625 65.7 68.625C66.825 68.625 67.65 69.45 67.65 70.65C67.65 70.725 67.65 70.8 67.65 70.875C67.65 70.95 67.65 70.95 67.575 70.95H64.5C64.425 70.95 64.425 70.95 64.425 71.1C64.5 71.85 65.025 72.375 65.85 72.375C66.3 72.375 66.75 72.15 66.975 71.85C67.05 71.775 67.05 71.775 67.125 71.85L67.425 72.15C67.425 72.15 67.425 72.225 67.425 72.3C66.975 72.75 66.45 72.975 65.85 72.975C64.65 72.825 63.75 72 63.75 70.725ZM67.05 70.275C66.9 69.6 66.45 69.15 65.775 69.15C65.1 69.15 64.575 69.6 64.5 70.275C64.5 70.35 64.5 70.35 64.575 70.35H66.975C67.05 70.35 67.05 70.35 67.05 70.275Z" fill="white"/>
</g>
<defs>
<clipPath id="clip0_67_2365">
<rect width="101.25" height="83.25" fill="white"/>
</clipPath>
</defs>
</svg>
